<?xml version="1.0" encoding="UTF-8"?>
<svg width="182px" height="182px" viewBox="0 0 182 182" version="1.1" xmlns="http://www.w3.org/2000/svg" xmlns:xlink="http://www.w3.org/1999/xlink">
    <!-- Generator: Sketch 64 (93537) - https://sketch.com -->
    <title>logos/Bancolombia/isotipo</title>
    <desc>Created with Sketch.</desc>
    <g id="logos/Bancolombia/isotipo" stroke="none" stroke-width="1" fill="none" fill-rule="evenodd">
        <path d="M171.3228,113.9886 L171.2638,113.8316 C171.2638,113.8316 163.9158,93.5926 163.8918,93.5406 C163.4528,92.4736 162.9348,91.5616 162.3738,90.7506 C165.1968,90.0126 167.4368,88.4426 168.7148,86.1516 C169.2978,85.0666 169.8468,83.5636 169.8468,81.6666 C169.8468,80.3416 169.5978,78.8296 168.8918,77.1436 L162.3708,60.5116 C160.5498,56.8986 158.2198,53.8826 153.1268,52.8366 C154.1118,50.2506 153.8228,47.3216 152.1778,44.7076 L152.6458,45.5956 L146.7258,31.9256 L146.5398,31.5986 C143.2938,26.0346 139.1428,25.3896 136.3968,24.9406 C127.3028,23.4996 107.3678,23.7426 90.9048,25.4726 C83.2418,26.1236 74.9118,27.3136 64.7498,29.1916 C57.1888,30.7126 47.2078,32.8426 36.4638,35.9996 C32.7008,37.1986 30.1498,39.1516 28.7698,41.8816 C28.2018,42.9816 27.6958,44.5336 27.6958,46.4906 C27.6958,47.6976 27.8868,49.0566 28.4078,50.5746 L33.6268,65.6696 C34.0058,66.7606 35.0118,68.8826 36.9298,70.6156 C32.2098,72.2896 17.8028,77.3486 17.8028,77.3486 C11.7918,79.7156 7.9998,84.9276 7.9998,90.3016 C7.9998,91.1166 8.0878,91.9116 8.2568,92.7136 C8.2948,92.8686 13.8958,115.3616 13.8958,115.3616 C14.8888,118.7816 17.0768,121.3916 20.1118,122.8866 C23.4968,124.5956 27.7028,124.7106 31.6188,123.2056 C40.5408,119.8216 50.2708,116.5536 60.2638,113.5086 C59.5968,116.0366 59.7218,118.7816 60.6868,121.5206 C60.6868,121.5206 70.3658,148.9296 70.4198,149.1026 C72.9568,156.5226 80.6038,160.4106 87.9528,157.8976 L134.3018,140.5176 L157.4238,131.6176 L164.6958,128.7726 C170.8198,126.2746 173.2958,120.7566 171.3228,113.9886" id="Fill-1" fill="#FFFFFF"></path>
        <path d="M165.2945,115.7484 C166.1765,118.7814 165.8925,121.5054 162.3095,122.9744 C158.0175,124.7194 154.8315,125.8594 149.5455,127.9424 C146.8375,128.9654 144.2325,129.9804 141.2425,131.1374 C138.3355,132.2284 135.3395,133.4154 132.0655,134.6444 C119.0415,139.6324 104.2525,145.1944 85.7825,152.0154 C81.8225,153.3594 77.8005,151.2934 76.3475,147.0574 C73.3245,137.3764 69.8955,128.0014 66.5525,119.2814 C65.1325,115.2754 67.2175,111.6484 71.0755,110.4684 C80.4555,107.8334 88.8385,105.7484 96.9865,103.7564 C105.0795,101.7634 112.2175,100.0684 119.0305,98.5704 C132.6855,95.4674 141.4495,93.5934 150.7845,91.9654 C155.2915,91.1634 156.9065,93.1074 158.1175,95.9914 C160.7765,102.4374 163.1065,108.9424 165.2945,115.7484" id="Fill-4" fill="#E30520"></path>
        <path d="M156.5191,62.8167 C155.2281,60.2707 154.0881,58.7847 149.3861,58.6987 C136.3271,58.4227 121.1181,59.4107 98.1941,62.7977 C86.6991,64.4837 74.3001,66.8677 60.7911,70.2197 C54.0061,72.0137 47.2901,73.7107 40.4601,76.0257 C33.2991,78.2377 26.7391,80.6027 20.0551,83.1957 C16.0961,84.7777 13.7331,88.3327 14.3851,91.3817 C16.1051,98.4697 17.8801,105.6017 19.9781,113.8137 C21.0071,117.3677 25.0831,118.9877 29.3861,117.3467 C44.3351,111.6677 59.9561,106.7797 74.5681,102.8237 C89.2551,98.9657 101.7891,96.0747 113.3041,93.5417 C136.1111,88.5837 148.0651,86.9887 160.3181,84.8417 C163.0941,84.3457 164.3221,82.5427 163.0871,79.5147 L156.5191,62.8167 Z" id="Fill-6" fill="#FFD300"></path>
        <path d="M141.1168,34.744 C139.3608,31.747 137.6448,31.476 135.3648,31.126 C127.0958,29.812 107.7208,29.998 91.5048,31.719 C83.3358,32.41 75.0158,33.662 65.8998,35.355 C56.8528,37.166 47.7558,39.227 38.2328,42.039 C35.0398,43.036 33.0998,44.879 34.3468,48.562 C36.0318,53.532 37.5288,57.747 39.5508,63.612 C40.9028,67.496 44.2598,67.526 47.8048,66.447 C58.4428,63.304 68.5538,60.89 78.4368,58.95 C88.3708,56.957 97.1778,55.728 105.6048,54.583 C122.5008,52.549 136.9998,52.117 145.1468,52.009 C147.0198,51.969 148.2748,50.285 146.8878,48.095 L141.1168,34.744 Z" id="Fill-8" fill="#063E85"></path>
    </g>
</svg>